<svg width="160" height="136" viewBox="0 0 160 136" fill="none" xmlns="http://www.w3.org/2000/svg">
<path d="M42.7315 136H155.636C156.793 136 157.903 135.541 158.722 134.723C159.54 133.906 160 132.797 160 131.641V55.0886C160 53.8826 159.52 52.7259 158.666 51.8731C157.812 51.0203 156.654 50.5412 155.447 50.5412H42.1852C40.9777 50.5412 39.8196 51.0203 38.9658 51.8731C38.112 52.7259 37.6323 53.8826 37.6323 55.0886V130.907C37.6315 131.576 37.7628 132.239 38.0187 132.857C38.2747 133.475 38.6503 134.037 39.1239 134.51C39.5976 134.983 40.1601 135.358 40.7791 135.614C41.3982 135.87 42.0616 136.001 42.7315 136Z" fill="#505F79"/>
<path d="M42.6602 136H155.558C156.715 136 157.825 135.541 158.644 134.723C159.462 133.906 159.922 132.797 159.922 131.641V55.0886C159.922 53.8826 159.442 52.7259 158.589 51.8731C157.735 51.0203 156.577 50.5412 155.369 50.5412H42.1139C40.9064 50.5412 39.7484 51.0203 38.8945 51.8731C38.0407 52.7259 37.561 53.8826 37.561 55.0886V130.907C37.5602 131.576 37.6915 132.239 37.9474 132.857C38.2034 133.475 38.579 134.037 39.0526 134.51C39.5263 134.983 40.0888 135.358 40.7078 135.614C41.3269 135.87 41.9903 136.001 42.6602 136Z" fill="#505F79"/>
<path d="M42.5886 136H155.486C156.644 136 157.754 135.541 158.572 134.723C159.391 133.906 159.85 132.797 159.85 131.641V55.0886C159.85 53.8826 159.371 52.7259 158.517 51.8731C157.663 51.0203 156.505 50.5412 155.298 50.5412H42.0358C40.8283 50.5412 39.6702 51.0203 38.8164 51.8731C37.9626 52.7259 37.4829 53.8826 37.4829 55.0886V130.907C37.4821 131.577 37.6136 132.24 37.8699 132.858C38.1263 133.477 38.5025 134.039 38.9768 134.512C39.4512 134.986 40.0144 135.361 40.6342 135.616C41.254 135.871 41.9182 136.002 42.5886 136Z" fill="#505F79"/>
<path d="M42.5168 136H155.447C156.604 136 157.714 135.541 158.533 134.723C159.351 133.906 159.811 132.797 159.811 131.641V55.0886C159.811 53.8826 159.331 52.7259 158.478 51.8731C157.624 51.0203 156.466 50.5412 155.258 50.5412H41.964C40.7565 50.5412 39.5985 51.0203 38.7446 51.8731C37.8908 52.7259 37.4111 53.8826 37.4111 55.0886V130.907C37.4103 131.577 37.5418 132.24 37.7982 132.858C38.0545 133.477 38.4307 134.039 38.905 134.512C39.3794 134.986 39.9426 135.361 40.5624 135.616C41.1822 135.871 41.8464 136.002 42.5168 136Z" fill="#505F79"/>
<path d="M42.4455 136H155.343C156.501 136 157.611 135.541 158.429 134.723C159.248 133.906 159.707 132.797 159.707 131.641V55.0886C159.707 53.8826 159.228 52.7259 158.374 51.8731C157.52 51.0203 156.362 50.5412 155.154 50.5412H41.8927C40.6852 50.5412 39.5272 51.0203 38.6733 51.8731C37.8195 52.7259 37.3398 53.8826 37.3398 55.0886V130.907C37.339 131.577 37.4705 132.24 37.7269 132.858C37.9832 133.477 38.3594 134.039 38.8338 134.512C39.3081 134.986 39.8714 135.361 40.4912 135.616C41.111 135.871 41.7751 136.002 42.4455 136Z" fill="#505F79"/>
<path d="M42.3743 136H155.272C156.429 136 157.539 135.541 158.358 134.723C159.176 133.906 159.636 132.797 159.636 131.641V55.0886C159.636 53.8826 159.156 52.7259 158.303 51.8731C157.449 51.0203 156.291 50.5412 155.083 50.5412H41.8214C40.6139 50.5412 39.4559 51.0203 38.6021 51.8731C37.7482 52.7259 37.2686 53.8826 37.2686 55.0886V130.907C37.2677 131.577 37.3992 132.24 37.6556 132.858C37.9119 133.477 38.2881 134.039 38.7625 134.512C39.2368 134.986 39.8001 135.361 40.4199 135.616C41.0397 135.871 41.7038 136.002 42.3743 136Z" fill="#505F79"/>
<path d="M42.2765 136H155.2C156.357 136 157.468 135.541 158.286 134.723C159.104 133.906 159.564 132.797 159.564 131.641V55.0886C159.564 53.8826 159.085 52.7259 158.231 51.8731C157.377 51.0203 156.219 50.5412 155.011 50.5412H41.7496C40.5421 50.5412 39.3841 51.0203 38.5303 51.8731C37.6765 52.7259 37.1968 53.8826 37.1968 55.0886V130.907C37.1951 132.255 37.7291 133.548 38.6815 134.503C39.6339 135.458 40.9269 135.997 42.2765 136Z" fill="#505F79"/>
<path d="M42.2242 136H155.122C156.279 136 157.389 135.541 158.208 134.723C159.026 133.906 159.486 132.797 159.486 131.641V55.0886C159.486 53.8826 159.006 52.7259 158.152 51.8731C157.299 51.0203 156.141 50.5412 154.933 50.5412H41.6778C40.4704 50.5412 39.3123 51.0203 38.4585 51.8731C37.6047 52.7259 37.125 53.8826 37.125 55.0886V130.907C37.1241 131.576 37.2555 132.239 37.5114 132.857C37.7674 133.475 38.1429 134.037 38.6166 134.51C39.0903 134.983 39.6528 135.358 40.2718 135.614C40.8909 135.87 41.5543 136.001 42.2242 136Z" fill="#505F79"/>
<path d="M42.1529 136H155.05C156.208 136 157.318 135.541 158.136 134.723C158.955 133.906 159.415 132.797 159.415 131.641V55.0886C159.415 53.8826 158.935 52.7259 158.081 51.8731C157.227 51.0203 156.069 50.5412 154.862 50.5412H41.6261C40.4186 50.5412 39.2606 51.0203 38.4067 51.8731C37.5529 52.7259 37.0732 53.8826 37.0732 55.0886V130.907C37.0715 132.255 37.6055 133.548 38.558 134.503C39.5104 135.458 40.8034 135.997 42.1529 136V136Z" fill="#505F79"/>
<path d="M42.0813 136H154.979C156.136 136 157.246 135.541 158.065 134.723C158.883 133.906 159.343 132.797 159.343 131.641V55.0886C159.343 53.8826 158.863 52.7259 158.01 51.8731C157.156 51.0203 155.998 50.5412 154.79 50.5412H41.5284C40.3209 50.5412 39.1629 51.0203 38.3091 51.8731C37.4553 52.7259 36.9756 53.8826 36.9756 55.0886V130.907C36.9747 131.577 37.1063 132.24 37.3626 132.858C37.619 133.477 37.9951 134.039 38.4695 134.512C38.9439 134.986 39.5071 135.361 40.1269 135.616C40.7467 135.871 41.4109 136.002 42.0813 136Z" fill="#505F79"/>
<path d="M42.01 136H154.908C156.065 136 157.175 135.541 157.994 134.723C158.812 133.906 159.272 132.797 159.272 131.641V55.0886C159.272 53.8826 158.792 52.7259 157.938 51.8731C157.084 51.0203 155.926 50.5412 154.719 50.5412H41.4571C40.2497 50.5412 39.0916 51.0203 38.2378 51.8731C37.384 52.7259 36.9043 53.8826 36.9043 55.0886V130.907C36.9034 131.577 37.035 132.24 37.2913 132.858C37.5477 133.477 37.9238 134.039 38.3982 134.512C38.8726 134.986 39.4358 135.361 40.0556 135.616C40.6754 135.871 41.3396 136.002 42.01 136Z" fill="#505F79"/>
<path d="M41.9317 136H154.836C155.409 136 155.976 135.887 156.506 135.668C157.035 135.449 157.516 135.128 157.922 134.723C158.327 134.318 158.648 133.838 158.868 133.309C159.087 132.78 159.2 132.213 159.2 131.641V55.0886C159.2 53.8826 158.72 52.7259 157.867 51.8731C157.013 51.0203 155.855 50.5412 154.647 50.5412H41.3854C40.1779 50.5412 39.0198 51.0203 38.166 51.8731C37.3122 52.7259 36.8325 53.8826 36.8325 55.0886V130.907C36.8317 131.576 36.963 132.239 37.2189 132.857C37.4749 133.475 37.8505 134.037 38.3241 134.51C38.7978 134.983 39.3603 135.358 39.9793 135.614C40.5984 135.87 41.2618 136.001 41.9317 136Z" fill="#505F79"/>
<path d="M41.8599 136H154.758C155.915 136 157.025 135.541 157.843 134.723C158.662 133.906 159.122 132.797 159.122 131.641V55.0886C159.122 53.8826 158.642 52.7259 157.788 51.8731C156.934 51.0203 155.776 50.5412 154.569 50.5412H41.3136C40.1061 50.5412 38.9481 51.0203 38.0942 51.8731C37.2404 52.7259 36.7607 53.8826 36.7607 55.0886V130.907C36.7599 131.576 36.8912 132.239 37.1472 132.857C37.4031 133.475 37.7787 134.037 38.2524 134.51C38.726 134.983 39.2885 135.358 39.9075 135.614C40.5266 135.87 41.1901 136.001 41.8599 136Z" fill="#505F79"/>
<path d="M41.7888 136H154.686C155.844 136 156.954 135.541 157.772 134.723C158.591 133.906 159.051 132.797 159.051 131.641V55.0886C159.051 53.8826 158.571 52.7259 157.717 51.8731C156.863 51.0203 155.705 50.5412 154.498 50.5412H41.236C40.0285 50.5412 38.8704 51.0203 38.0166 51.8731C37.1628 52.7259 36.6831 53.8826 36.6831 55.0886V130.907C36.6823 131.577 36.8138 132.24 37.0701 132.858C37.3265 133.477 37.7026 134.039 38.177 134.512C38.6514 134.986 39.2146 135.361 39.8344 135.616C40.4542 135.871 41.1184 136.002 41.7888 136Z" fill="#505F79"/>
<path d="M41.717 136H154.615C155.772 136 156.882 135.541 157.701 134.723C158.519 133.906 158.979 132.797 158.979 131.641V55.0886C158.979 53.8826 158.499 52.7259 157.645 51.8731C156.791 51.0203 155.633 50.5412 154.426 50.5412H41.1642C39.9567 50.5412 38.7987 51.0203 37.9448 51.8731C37.091 52.7259 36.6113 53.8826 36.6113 55.0886V130.907C36.6105 131.577 36.742 132.24 36.9984 132.858C37.2547 133.477 37.6309 134.039 38.1052 134.512C38.5796 134.986 39.1428 135.361 39.7626 135.616C40.3824 135.871 41.0466 136.002 41.717 136Z" fill="#505F79"/>
<path d="M41.6262 136H154.543C155.116 136 155.684 135.887 156.213 135.668C156.743 135.449 157.224 135.128 157.629 134.723C158.035 134.318 158.356 133.838 158.575 133.309C158.795 132.78 158.908 132.213 158.908 131.641V55.0886C158.908 53.8826 158.428 52.7259 157.574 51.8731C156.72 51.0203 155.562 50.5412 154.355 50.5412H41.0929C39.8854 50.5412 38.7274 51.0203 37.8735 51.8731C37.0197 52.7259 36.54 53.8826 36.54 55.0886V130.907C36.5392 131.575 36.6701 132.236 36.9252 132.854C37.1804 133.471 37.5548 134.033 38.0271 134.506C38.4994 134.978 39.0603 135.354 39.6778 135.61C40.2954 135.867 40.9574 135.999 41.6262 136V136Z" fill="#505F79"/>
<path d="M41.5675 136H154.472C155.629 136 156.739 135.541 157.557 134.723C158.376 133.906 158.836 132.797 158.836 131.641V55.0886C158.836 53.8826 158.356 52.7259 157.502 51.8731C156.648 51.0203 155.49 50.5412 154.283 50.5412H41.0211C39.8136 50.5412 38.6556 51.0203 37.8018 51.8731C36.9479 52.7259 36.4683 53.8826 36.4683 55.0886V130.907C36.4674 131.576 36.5987 132.239 36.8547 132.857C37.1106 133.475 37.4862 134.037 37.9599 134.51C38.4335 134.983 38.996 135.358 39.6151 135.614C40.2341 135.87 40.8976 136.001 41.5675 136V136Z" fill="#505F79"/>
<path d="M41.496 136H154.394C155.551 136 156.661 135.541 157.48 134.723C158.298 133.906 158.758 132.797 158.758 131.641V55.0886C158.758 53.8826 158.278 52.7259 157.424 51.8731C156.57 51.0203 155.412 50.5412 154.205 50.5412H40.9757C39.7682 50.5412 38.6102 51.0203 37.7564 51.8731C36.9025 52.7259 36.4229 53.8826 36.4229 55.0886V130.907C36.4211 132.254 36.9542 133.546 37.9053 134.501C38.8563 135.456 40.1476 135.995 41.496 136V136Z" fill="#505F79"/>
<path d="M41.4245 136H154.322C155.48 136 156.59 135.541 157.408 134.723C158.227 133.906 158.686 132.797 158.686 131.641V55.0886C158.686 53.8826 158.207 52.7259 157.353 51.8731C156.499 51.0203 155.341 50.5412 154.133 50.5412H40.8717C39.6642 50.5412 38.5062 51.0203 37.6523 51.8731C36.7985 52.7259 36.3189 53.8826 36.3189 55.0886V130.907C36.318 131.577 36.4495 132.24 36.7059 132.858C36.9622 133.477 37.3384 134.039 37.8128 134.512C38.2871 134.986 38.8504 135.361 39.4702 135.616C40.09 135.871 40.7541 136.002 41.4245 136V136Z" fill="#505F79"/>
<path d="M41.3528 136H154.25C155.408 136 156.518 135.541 157.336 134.723C158.155 133.906 158.615 132.797 158.615 131.641V55.0886C158.615 53.8826 158.135 52.7259 157.281 51.8731C156.427 51.0203 155.269 50.5412 154.062 50.5412H40.7999C39.5924 50.5412 38.4344 51.0203 37.5806 51.8731C36.7267 52.7259 36.2471 53.8826 36.2471 55.0886V130.907C36.2462 131.577 36.3777 132.24 36.6341 132.858C36.8905 133.477 37.2666 134.039 37.741 134.512C38.2153 134.986 38.7786 135.361 39.3984 135.616C40.0182 135.871 40.6823 136.002 41.3528 136Z" fill="#505F79"/>
<path d="M41.2815 136H154.147C154.72 136 155.287 135.887 155.817 135.668C156.346 135.449 156.827 135.128 157.232 134.723C157.638 134.318 157.959 133.838 158.179 133.309C158.398 132.78 158.511 132.213 158.511 131.641V55.0886C158.511 53.8826 158.031 52.7259 157.177 51.8731C156.323 51.0203 155.165 50.5412 153.958 50.5412H40.7286C39.5211 50.5412 38.3631 51.0203 37.5093 51.8731C36.6555 52.7259 36.1758 53.8826 36.1758 55.0886V130.907C36.1749 131.577 36.3065 132.24 36.5628 132.858C36.8192 133.477 37.1953 134.039 37.6697 134.512C38.1441 134.986 38.7073 135.361 39.3271 135.616C39.9469 135.871 40.6111 136.002 41.2815 136Z" fill="#505F79"/>
<path d="M41.2097 136H154.107C155.265 136 156.375 135.541 157.193 134.723C158.012 133.906 158.471 132.797 158.471 131.641V55.0886C158.471 53.8826 157.992 52.7259 157.138 51.8731C156.284 51.0203 155.126 50.5412 153.919 50.5412H40.6569C39.4494 50.5412 38.2913 51.0203 37.4375 51.8731C36.5837 52.7259 36.104 53.8826 36.104 55.0886V130.907C36.1031 131.577 36.2347 132.24 36.491 132.858C36.7474 133.477 37.1235 134.039 37.5979 134.512C38.0723 134.986 38.6355 135.361 39.2553 135.616C39.8751 135.871 40.5393 136.002 41.2097 136Z" fill="#505F79"/>
<path d="M41.1319 136H154.029C155.187 136 156.297 135.541 157.115 134.723C157.934 133.906 158.394 132.797 158.394 131.641V55.0886C158.394 53.8826 157.914 52.7259 157.06 51.8731C156.206 51.0203 155.048 50.5412 153.841 50.5412H40.5856C39.3781 50.5412 38.22 51.0203 37.3662 51.8731C36.5124 52.7259 36.0327 53.8826 36.0327 55.0886V130.907C36.0319 131.576 36.1632 132.239 36.4191 132.857C36.6751 133.475 37.0507 134.037 37.5243 134.51C37.998 134.983 38.5605 135.358 39.1795 135.614C39.7986 135.87 40.462 136.001 41.1319 136Z" fill="#505F79"/>
<path d="M41.0603 136H153.958C155.115 136 156.225 135.541 157.044 134.723C157.862 133.906 158.322 132.797 158.322 131.641V55.0886C158.322 53.8826 157.842 52.7259 156.989 51.8731C156.135 51.0203 154.977 50.5412 153.769 50.5412H40.5074C39.2999 50.5412 38.1419 51.0203 37.2881 51.8731C36.4343 52.7259 35.9546 53.8826 35.9546 55.0886V130.907C35.9537 131.577 36.0853 132.24 36.3416 132.858C36.598 133.477 36.9741 134.039 37.4485 134.512C37.9229 134.986 38.4861 135.361 39.1059 135.616C39.7257 135.871 40.3899 136.002 41.0603 136Z" fill="#505F79"/>
<path d="M40.9755 136H153.886C155.044 136 156.154 135.541 156.972 134.723C157.79 133.906 158.25 132.797 158.25 131.641V55.0886C158.25 53.8826 157.771 52.7259 156.917 51.8731C156.063 51.0203 154.905 50.5412 153.697 50.5412H40.4357C39.2282 50.5412 38.0701 51.0203 37.2163 51.8731C36.3625 52.7259 35.8828 53.8826 35.8828 55.0886V130.907C35.882 131.575 36.0131 132.238 36.2686 132.855C36.5242 133.473 36.8991 134.035 37.3721 134.508C37.8451 134.981 38.4068 135.356 39.0251 135.612C39.6434 135.868 40.3062 136 40.9755 136Z" fill="#505F79"/>
<path d="M40.9172 136H153.815C154.972 136 156.082 135.541 156.901 134.723C157.719 133.906 158.179 132.797 158.179 131.641V55.0886C158.179 53.8826 157.699 52.7259 156.846 51.8731C155.992 51.0203 154.834 50.5412 153.626 50.5412H40.3644C39.1569 50.5412 37.9988 51.0203 37.145 51.8731C36.2912 52.7259 35.8115 53.8826 35.8115 55.0886V130.907C35.8107 131.577 35.9422 132.24 36.1986 132.858C36.4549 133.477 36.8311 134.039 37.3054 134.512C37.7798 134.986 38.343 135.361 38.9628 135.616C39.5826 135.871 40.2468 136.002 40.9172 136V136Z" fill="#505F79"/>
<path d="M40.8454 136H153.743C154.9 136 156.011 135.541 156.829 134.723C157.647 133.906 158.107 132.797 158.107 131.641V55.0886C158.107 53.8826 157.628 52.7259 156.774 51.8731C155.92 51.0203 154.762 50.5412 153.554 50.5412H40.2926C39.0851 50.5412 37.9271 51.0203 37.0732 51.8731C36.2194 52.7259 35.7398 53.8826 35.7398 55.0886V130.907C35.7389 131.577 35.8704 132.24 36.1268 132.858C36.3831 133.477 36.7593 134.039 37.2337 134.512C37.708 134.986 38.2713 135.361 38.8911 135.616C39.5109 135.871 40.175 136.002 40.8454 136V136Z" fill="#505F79"/>
<path d="M40.7676 136H153.672C154.829 136 155.939 135.541 156.758 134.723C157.576 133.906 158.036 132.797 158.036 131.641V55.0886C158.036 53.8826 157.556 52.7259 156.702 51.8731C155.849 51.0203 154.691 50.5412 153.483 50.5412H40.2213C39.0138 50.5412 37.8558 51.0203 37.002 51.8731C36.1481 52.7259 35.6685 53.8826 35.6685 55.0886V130.907C35.6676 131.576 35.7989 132.239 36.0549 132.857C36.3108 133.475 36.6864 134.037 37.1601 134.51C37.6337 134.983 38.1962 135.358 38.8153 135.614C39.4343 135.87 40.0978 136.001 40.7676 136Z" fill="#505F79"/>
<path d="M40.6959 136H153.593C154.751 136 155.861 135.541 156.679 134.723C157.498 133.906 157.958 132.797 157.958 131.641V55.0886C157.958 53.8826 157.478 52.7259 156.624 51.8731C155.77 51.0203 154.612 50.5412 153.405 50.5412H40.1495C38.942 50.5412 37.784 51.0203 36.9302 51.8731C36.0764 52.7259 35.5967 53.8826 35.5967 55.0886V130.907C35.5958 131.576 35.7271 132.239 35.9831 132.857C36.239 133.475 36.6146 134.037 37.0883 134.51C37.562 134.983 38.1244 135.358 38.7435 135.614C39.3625 135.87 40.026 136.001 40.6959 136V136Z" fill="#505F79"/>
<path d="M40.6242 136H153.496C154.653 136 155.763 135.541 156.582 134.723C157.4 133.906 157.86 132.797 157.86 131.641V55.0886C157.86 53.8826 157.38 52.7259 156.527 51.8731C155.673 51.0203 154.515 50.5412 153.307 50.5412H40.0714C38.8639 50.5412 37.7059 51.0203 36.8521 51.8731C35.9982 52.7259 35.5186 53.8826 35.5186 55.0886V130.907C35.5177 131.577 35.6492 132.24 35.9056 132.858C36.1619 133.477 36.5381 134.039 37.0125 134.512C37.4868 134.986 38.0501 135.361 38.6699 135.616C39.2897 135.871 39.9538 136.002 40.6242 136Z" fill="#505F79"/>
<path d="M40.553 136H153.451C154.608 136 155.718 135.541 156.537 134.723C157.355 133.906 157.815 132.797 157.815 131.641V55.0886C157.815 53.8826 157.335 52.7259 156.481 51.8731C155.627 51.0203 154.469 50.5412 153.262 50.5412H40.0001C38.7926 50.5412 37.6346 51.0203 36.7808 51.8731C35.9269 52.7259 35.4473 53.8826 35.4473 55.0886V130.907C35.4464 131.577 35.5779 132.24 35.8343 132.858C36.0907 133.477 36.4668 134.039 36.9412 134.512C37.4155 134.986 37.9788 135.361 38.5986 135.616C39.2184 135.871 39.8825 136.002 40.553 136Z" fill="#505F79"/>
<path d="M40.4812 136H153.379C154.536 136 155.646 135.541 156.465 134.723C157.283 133.906 157.743 132.797 157.743 131.641V55.0886C157.743 53.8826 157.263 52.7259 156.409 51.8731C155.556 51.0203 154.398 50.5412 153.19 50.5412H39.9283C38.7208 50.5412 37.5628 51.0203 36.709 51.8731C35.8552 52.7259 35.3755 53.8826 35.3755 55.0886V130.907C35.3746 131.577 35.5062 132.24 35.7625 132.858C36.0189 133.477 36.395 134.039 36.8694 134.512C37.3438 134.986 37.907 135.361 38.5268 135.616C39.1466 135.871 39.8108 136.002 40.4812 136Z" fill="#505F79"/>
<path d="M40.4034 136H153.307C154.465 136 155.575 135.541 156.393 134.723C157.212 133.906 157.672 132.797 157.672 131.641V55.0886C157.672 53.8826 157.192 52.7259 156.338 51.8731C155.484 51.0203 154.326 50.5412 153.119 50.5412H39.857C38.6496 50.5412 37.4915 51.0203 36.6377 51.8731C35.7839 52.7259 35.3042 53.8826 35.3042 55.0886V130.907C35.3033 131.576 35.4347 132.239 35.6906 132.857C35.9466 133.475 36.3221 134.037 36.7958 134.51C37.2695 134.983 37.832 135.358 38.451 135.614C39.0701 135.87 39.7335 136.001 40.4034 136Z" fill="#505F79"/>
<path d="M40.3251 136H153.229C154.387 136 155.497 135.541 156.315 134.723C157.134 133.906 157.593 132.797 157.593 131.641V55.0886C157.593 53.8826 157.114 52.7259 156.26 51.8731C155.406 51.0203 154.248 50.5412 153.041 50.5412H39.7853C38.5778 50.5412 37.4197 51.0203 36.5659 51.8731C35.7121 52.7259 35.2324 53.8826 35.2324 55.0886V130.907C35.2316 131.575 35.3627 132.238 35.6182 132.855C35.8738 133.473 36.2488 134.035 36.7217 134.508C37.1947 134.981 37.7564 135.356 38.3747 135.612C38.993 135.868 39.6558 136 40.3251 136Z" fill="#505F79"/>
<path d="M40.26 136H153.158C154.315 136 155.425 135.541 156.244 134.723C157.062 133.906 157.522 132.797 157.522 131.641V55.0886C157.522 53.8826 157.042 52.7259 156.188 51.8731C155.334 51.0203 154.176 50.5412 152.969 50.5412H39.7071C38.4997 50.5412 37.3416 51.0203 36.4878 51.8731C35.634 52.7259 35.1543 53.8826 35.1543 55.0886V130.907C35.1534 131.577 35.285 132.24 35.5413 132.858C35.7977 133.477 36.1738 134.039 36.6482 134.512C37.1226 134.986 37.6858 135.361 38.3056 135.616C38.9254 135.871 39.5896 136.002 40.26 136V136Z" fill="#505F79"/>
<path d="M40.1887 136H153.086C154.244 136 155.354 135.541 156.172 134.723C156.991 133.906 157.451 132.797 157.451 131.641V55.0886C157.451 53.8826 156.971 52.7259 156.117 51.8731C155.263 51.0203 154.105 50.5412 152.898 50.5412H39.6359C38.4284 50.5412 37.2703 51.0203 36.4165 51.8731C35.5627 52.7259 35.083 53.8826 35.083 55.0886V130.907C35.0822 131.577 35.2137 132.24 35.47 132.858C35.7264 133.477 36.1026 134.039 36.5769 134.512C37.0513 134.986 37.6145 135.361 38.2343 135.616C38.8541 135.871 39.5183 136.002 40.1887 136V136Z" fill="#505F79"/>
<path d="M40.1169 136H153.014C154.172 136 155.282 135.541 156.1 134.723C156.919 133.906 157.379 132.797 157.379 131.641V55.0886C157.379 53.8826 156.899 52.7259 156.045 51.8731C155.191 51.0203 154.033 50.5412 152.826 50.5412H39.5641C38.3566 50.5412 37.1986 51.0203 36.3447 51.8731C35.4909 52.7259 35.0112 53.8826 35.0112 55.0886V130.907C35.0104 131.577 35.1419 132.24 35.3983 132.858C35.6546 133.477 36.0308 134.039 36.5051 134.512C36.9795 134.986 37.5427 135.361 38.1625 135.616C38.7823 135.871 39.4465 136.002 40.1169 136Z" fill="#505F79"/>
<path d="M40.0391 136H152.943C154.101 136 155.211 135.541 156.029 134.723C156.848 133.906 157.307 132.797 157.307 131.641V55.0886C157.307 53.8826 156.828 52.7259 155.974 51.8731C155.12 51.0203 153.962 50.5412 152.755 50.5412H39.4928C38.2853 50.5412 37.1273 51.0203 36.2734 51.8731C35.4196 52.7259 34.9399 53.8826 34.9399 55.0886V130.907C34.9391 131.576 35.0704 132.239 35.3264 132.857C35.5823 133.475 35.9579 134.037 36.4316 134.51C36.9052 134.983 37.4677 135.358 38.0867 135.614C38.7058 135.87 39.3693 136.001 40.0391 136Z" fill="#505F79"/>
<path d="M39.9674 136H152.845C154.003 136 155.113 135.541 155.931 134.723C156.75 133.906 157.21 132.797 157.21 131.641V55.0886C157.21 53.8826 156.73 52.7259 155.876 51.8731C155.022 51.0203 153.864 50.5412 152.657 50.5412H39.421C38.2135 50.5412 37.0555 51.0203 36.2017 51.8731C35.3478 52.7259 34.8682 53.8826 34.8682 55.0886V130.907C34.8673 131.576 34.9986 132.239 35.2546 132.857C35.5105 133.475 35.8861 134.037 36.3598 134.51C36.8334 134.983 37.3959 135.358 38.015 135.614C38.634 135.87 39.2975 136.001 39.9674 136Z" fill="#505F79"/>
<path d="M39.8957 136H152.793C153.951 136 155.061 135.541 155.879 134.723C156.698 133.906 157.158 132.797 157.158 131.641V55.0886C157.158 53.8826 156.678 52.7259 155.824 51.8731C154.97 51.0203 153.812 50.5412 152.605 50.5412H39.3429C38.1354 50.5412 36.9774 51.0203 36.1235 51.8731C35.2697 52.7259 34.79 53.8826 34.79 55.0886V130.907C34.7892 131.577 34.9207 132.24 35.1771 132.858C35.4334 133.477 35.8096 134.039 36.2839 134.512C36.7583 134.986 37.3215 135.361 37.9413 135.616C38.5611 135.871 39.2253 136.002 39.8957 136V136Z" fill="#505F79"/>
<path d="M39.8244 136H152.722C153.879 136 154.99 135.541 155.808 134.723C156.626 133.906 157.086 132.797 157.086 131.641V55.0886C157.086 53.8826 156.607 52.7259 155.753 51.8731C154.899 51.0203 153.741 50.5412 152.533 50.5412H39.2716C38.0641 50.5412 36.9061 51.0203 36.0523 51.8731C35.1984 52.7259 34.7188 53.8826 34.7188 55.0886V130.907C34.7179 131.577 34.8494 132.24 35.1058 132.858C35.3621 133.477 35.7383 134.039 36.2127 134.512C36.687 134.986 37.2503 135.361 37.8701 135.616C38.4899 135.871 39.154 136.002 39.8244 136Z" fill="#505F79"/>
<path d="M39.7527 136H152.65C153.808 136 154.918 135.541 155.736 134.723C156.555 133.906 157.014 132.797 157.014 131.641V55.0886C157.014 53.8826 156.535 52.7259 155.681 51.8731C154.827 51.0203 153.669 50.5412 152.462 50.5412H39.1998C37.9923 50.5412 36.8343 51.0203 35.9805 51.8731C35.1266 52.7259 34.647 53.8826 34.647 55.0886V130.907C34.6461 131.577 34.7776 132.24 35.034 132.858C35.2904 133.477 35.6665 134.039 36.1409 134.512C36.6152 134.986 37.1785 135.361 37.7983 135.616C38.4181 135.871 39.0822 136.002 39.7527 136Z" fill="#505F79"/>
<path d="M39.6749 136H152.579C153.736 136 154.846 135.541 155.665 134.723C156.483 133.906 156.943 132.797 156.943 131.641V55.0886C156.943 53.8826 156.463 52.7259 155.61 51.8731C154.756 51.0203 153.598 50.5412 152.39 50.5412H39.1285C37.921 50.5412 36.763 51.0203 35.9092 51.8731C35.0554 52.7259 34.5757 53.8826 34.5757 55.0886V130.907C34.5748 131.576 34.7061 132.239 34.9621 132.857C35.2181 133.475 35.5936 134.037 36.0673 134.51C36.541 134.983 37.1034 135.358 37.7225 135.614C38.3415 135.87 39.005 136.001 39.6749 136V136Z" fill="#505F79"/>
<path d="M39.6034 136H152.501C153.658 136 154.768 135.541 155.587 134.723C156.405 133.906 156.865 132.797 156.865 131.641V55.0886C156.865 53.8826 156.385 52.7259 155.532 51.8731C154.678 51.0203 153.52 50.5412 152.312 50.5412H39.0245C37.817 50.5412 36.659 51.0203 35.8052 51.8731C34.9514 52.7259 34.4717 53.8826 34.4717 55.0886V130.907C34.4708 131.579 34.6032 132.244 34.8612 132.864C35.1191 133.485 35.4976 134.048 35.9748 134.522C36.4519 134.995 37.0182 135.37 37.641 135.623C38.2638 135.877 38.9308 136.005 39.6034 136V136Z" fill="#505F79"/>
<path d="M39.5318 136H152.429C153.587 136 154.697 135.541 155.515 134.723C156.334 133.906 156.794 132.797 156.794 131.641V55.0886C156.794 53.8826 156.314 52.7259 155.46 51.8731C154.606 51.0203 153.448 50.5412 152.241 50.5412H38.9855C37.778 50.5412 36.6199 51.0203 35.7661 51.8731C34.9123 52.7259 34.4326 53.8826 34.4326 55.0886V130.907C34.4318 131.576 34.5631 132.239 34.819 132.857C35.075 133.475 35.4506 134.037 35.9242 134.51C36.3979 134.983 36.9604 135.358 37.5794 135.614C38.1985 135.87 38.8619 136.001 39.5318 136V136Z" fill="#505F79"/>
<path d="M39.4602 136H152.358C152.931 136 153.498 135.887 154.028 135.668C154.557 135.449 155.038 135.128 155.444 134.723C155.849 134.318 156.17 133.838 156.39 133.309C156.609 132.78 156.722 132.213 156.722 131.641V55.0886C156.722 53.8826 156.242 52.7259 155.388 51.8731C154.535 51.0203 153.377 50.5412 152.169 50.5412H38.9073C37.6999 50.5412 36.5418 51.0203 35.688 51.8731C34.8342 52.7259 34.3545 53.8826 34.3545 55.0886V130.907C34.3536 131.577 34.4852 132.24 34.7415 132.858C34.9979 133.477 35.374 134.039 35.8484 134.512C36.3228 134.986 36.886 135.361 37.5058 135.616C38.1256 135.871 38.7898 136.002 39.4602 136Z" fill="#505F79"/>
<path d="M39.3889 136H152.286C153.444 136 154.554 135.541 155.372 134.723C156.191 133.906 156.651 132.797 156.651 131.641V55.0886C156.651 53.8826 156.171 52.7259 155.317 51.8731C154.463 51.0203 153.305 50.5412 152.098 50.5412H38.8361C37.6286 50.5412 36.4705 51.0203 35.6167 51.8731C34.7629 52.7259 34.2832 53.8826 34.2832 55.0886V130.907C34.2823 131.577 34.4139 132.24 34.6702 132.858C34.9266 133.477 35.3027 134.039 35.7771 134.512C36.2515 134.986 36.8147 135.361 37.4345 135.616C38.0543 135.871 38.7185 136.002 39.3889 136V136Z" fill="#505F79"/>
<path d="M39.3171 136H152.195C153.353 136 154.463 135.541 155.281 134.723C156.1 133.906 156.559 132.797 156.559 131.641V55.0886C156.559 53.8826 156.08 52.7259 155.226 51.8731C154.372 51.0203 153.214 50.5412 152.007 50.5412H38.7643C37.5568 50.5412 36.3988 51.0203 35.5449 51.8731C34.6911 52.7259 34.2114 53.8826 34.2114 55.0886V130.907C34.2106 131.577 34.3421 132.24 34.5985 132.858C34.8548 133.477 35.231 134.039 35.7053 134.512C36.1797 134.986 36.7429 135.361 37.3627 135.616C37.9825 135.871 38.6467 136.002 39.3171 136V136Z" fill="#505F79"/>
<path d="M39.2388 136H152.143C152.716 136 153.284 135.887 153.813 135.668C154.343 135.449 154.824 135.128 155.229 134.723C155.634 134.318 155.956 133.838 156.175 133.309C156.394 132.78 156.507 132.213 156.507 131.641V55.0886C156.507 53.8826 156.027 52.7259 155.174 51.8731C154.32 51.0203 153.162 50.5412 151.954 50.5412H38.6925C37.485 50.5412 36.327 51.0203 35.4731 51.8731C34.6193 52.7259 34.1397 53.8826 34.1397 55.0886V130.907C34.1388 131.576 34.2701 132.239 34.5261 132.857C34.782 133.475 35.1576 134.037 35.6313 134.51C36.1049 134.983 36.6674 135.358 37.2865 135.614C37.9055 135.87 38.569 136.001 39.2388 136Z" fill="#505F79"/>
<path d="M39.1676 136H152.065C152.638 136 153.206 135.887 153.735 135.668C154.265 135.449 154.746 135.128 155.151 134.723C155.556 134.318 155.878 133.838 156.097 133.309C156.316 132.78 156.429 132.213 156.429 131.641V55.0886C156.429 53.8826 155.95 52.7259 155.096 51.8731C154.242 51.0203 153.084 50.5412 151.876 50.5412H38.6212C37.4137 50.5412 36.2557 51.0203 35.4019 51.8731C34.548 52.7259 34.0684 53.8826 34.0684 55.0886V130.907C34.0675 131.576 34.1988 132.239 34.4548 132.857C34.7107 133.475 35.0863 134.037 35.56 134.51C36.0336 134.983 36.5961 135.358 37.2152 135.614C37.8342 135.87 38.4977 136.001 39.1676 136Z" fill="#505F79"/>
<path d="M39.0959 136H151.993C153.151 136 154.261 135.541 155.079 134.723C155.898 133.906 156.358 132.797 156.358 131.641V55.0886C156.358 53.8826 155.878 52.7259 155.024 51.8731C154.17 51.0203 153.012 50.5412 151.805 50.5412H38.5431C37.3356 50.5412 36.1776 51.0203 35.3237 51.8731C34.4699 52.7259 33.9902 53.8826 33.9902 55.0886V130.907C33.9894 131.577 34.1209 132.24 34.3773 132.858C34.6336 133.477 35.0098 134.039 35.4841 134.512C35.9585 134.986 36.5217 135.361 37.1415 135.616C37.7613 135.871 38.4255 136.002 39.0959 136Z" fill="#505F79"/>
<path d="M39.0959 136H151.993C153.151 136 154.261 135.541 155.079 134.723C155.898 133.906 156.358 132.797 156.358 131.641V55.0886C156.358 53.8826 155.878 52.7259 155.024 51.8731C154.17 51.0203 153.012 50.5412 151.805 50.5412H38.5431C37.3356 50.5412 36.1776 51.0203 35.3237 51.8731C34.4699 52.7259 33.9902 53.8826 33.9902 55.0886V130.907C33.9894 131.577 34.1209 132.24 34.3773 132.858C34.6336 133.477 35.0098 134.039 35.4841 134.512C35.9585 134.986 36.5217 135.361 37.1415 135.616C37.7613 135.871 38.4255 136.002 39.0959 136Z" fill="#C1C7D0"/>
<path d="M149.086 57.817H41.2812V123.638H149.086V57.817Z" fill="#DFE1E5"/>
<path d="M153.782 136L4.73498 136C3.47919 136 2.27484 135.502 1.38686 134.615C0.498882 133.728 2.17843e-05 132.525 2.17843e-05 131.271V131.271L158.517 131.271C158.517 132.525 158.018 133.728 157.13 134.615C156.242 135.502 155.038 136 153.782 136V136Z" fill="#505F79"/>
<path d="M98.0292 72.908H61.4438C61.1361 72.9079 60.8405 73.0282 60.6205 73.2431C60.4004 73.458 60.2734 73.7505 60.2666 74.0578V123.618H99.2064V74.0578C99.1996 73.7505 99.0726 73.458 98.8526 73.2431C98.6325 73.0282 98.337 72.9079 98.0292 72.908Z" fill="white"/>
<path d="M141.034 72.908H103.239C103.087 72.908 102.941 72.9682 102.834 73.0754C102.727 73.1826 102.667 73.328 102.667 73.4796V123.644H141.606V73.4796C141.606 73.328 141.546 73.1826 141.439 73.0754C141.331 72.9682 141.186 72.908 141.034 72.908V72.908Z" fill="white"/>
<path style="mix-blend-mode:multiply" opacity="0.63" d="M114.055 103.064H79.8961C79.58 103.064 79.3237 103.32 79.3237 103.635V117.07C79.3237 117.386 79.58 117.641 79.8961 117.641H114.055C114.372 117.641 114.628 117.386 114.628 117.07V103.635C114.628 103.32 114.372 103.064 114.055 103.064Z" fill="url(#paint0_linear)"/>
<path d="M139.213 74.7269H105.054C104.738 74.7269 104.481 74.9829 104.481 75.2986V88.7329C104.481 89.0487 104.738 89.3046 105.054 89.3046H139.213C139.529 89.3046 139.786 89.0487 139.786 88.7329V75.2986C139.786 74.9829 139.529 74.7269 139.213 74.7269Z" fill="#EBECF0"/>
<path d="M139.213 91.0261H105.054C104.738 91.0261 104.481 91.2821 104.481 91.5978V105.032C104.481 105.348 104.738 105.604 105.054 105.604H139.213C139.529 105.604 139.786 105.348 139.786 105.032V91.5978C139.786 91.2821 139.529 91.0261 139.213 91.0261Z" fill="#EBECF0"/>
<path d="M96.2211 74.7269H63.2715C62.6213 74.7269 62.0942 75.2534 62.0942 75.9028V88.1288C62.0942 88.7782 62.6213 89.3046 63.2715 89.3046H96.2211C96.8712 89.3046 97.3983 88.7782 97.3983 88.1288V75.9028C97.3983 75.2534 96.8712 74.7269 96.2211 74.7269Z" fill="#EBECF0"/>
<path d="M118.185 99.2894H84.026C83.7099 99.2894 83.4536 99.5454 83.4536 99.8611V113.295C83.4536 113.611 83.7099 113.867 84.026 113.867H118.185C118.501 113.867 118.758 113.611 118.758 113.295V99.8611C118.758 99.5454 118.501 99.2894 118.185 99.2894Z" fill="#79F2C0"/>
<path d="M113.88 111.483C115.288 111.483 116.429 110.343 116.429 108.936C116.429 107.53 115.288 106.39 113.88 106.39C112.472 106.39 111.33 107.53 111.33 108.936C111.33 110.343 112.472 111.483 113.88 111.483Z" fill="white"/>
<path d="M92.3836 86.5047C93.7917 86.5047 94.9332 85.3646 94.9332 83.9582C94.9332 82.5518 93.7917 81.4116 92.3836 81.4116C90.9755 81.4116 89.834 82.5518 89.834 83.9582C89.834 85.3646 90.9755 86.5047 92.3836 86.5047Z" fill="white"/>
<path d="M135.076 86.5047C136.485 86.5047 137.626 85.3646 137.626 83.9582C137.626 82.5518 136.485 81.4116 135.076 81.4116C133.668 81.4116 132.527 82.5518 132.527 83.9582C132.527 85.3646 133.668 86.5047 135.076 86.5047Z" fill="white"/>
<path d="M135.076 103.09C136.485 103.09 137.626 101.95 137.626 100.543C137.626 99.1368 136.485 97.9966 135.076 97.9966C133.668 97.9966 132.527 99.1368 132.527 100.543C132.527 101.95 133.668 103.09 135.076 103.09Z" fill="white"/>
<path d="M64.6113 77.7932H87.9154" stroke="#C1C7D0" stroke-width="2" stroke-miterlimit="10"/>
<path d="M64.6113 85.6212H72.93" stroke="#C1C7D0" stroke-width="2" stroke-miterlimit="10"/>
<path d="M86.3608 102.33H109.665" stroke="#36B37E" stroke-width="2" stroke-miterlimit="10"/>
<path d="M86.3608 110.158H94.6795" stroke="#36B37E" stroke-width="2" stroke-miterlimit="10"/>
<path d="M107.103 77.7932H130.407" stroke="#C1C7D0" stroke-width="2" stroke-miterlimit="10"/>
<path d="M107.103 85.6212H115.421" stroke="#C1C7D0" stroke-width="2" stroke-miterlimit="10"/>
<path d="M107.103 94.0859H130.407" stroke="#C1C7D0" stroke-width="2" stroke-miterlimit="10"/>
<path d="M149.086 57.817H41.2812V67.2496H149.086V57.817Z" fill="#505F79"/>
<path d="M57 67H41V124H57V67Z" fill="#CF6679"/>
<path d="M46.023 64.5017C47.1114 64.5017 47.9937 63.6204 47.9937 62.5333C47.9937 61.4462 47.1114 60.5649 46.023 60.5649C44.9346 60.5649 44.0522 61.4462 44.0522 62.5333C44.0522 63.6204 44.9346 64.5017 46.023 64.5017Z" fill="#F4F5F7"/>
<path d="M52.4488 64.5017C53.5372 64.5017 54.4195 63.6204 54.4195 62.5333C54.4195 61.4462 53.5372 60.5649 52.4488 60.5649C51.3604 60.5649 50.478 61.4462 50.478 62.5333C50.478 63.6204 51.3604 64.5017 52.4488 64.5017Z" fill="#36B37E"/>
<path d="M58.8814 64.5017C59.9698 64.5017 60.8521 63.6204 60.8521 62.5333C60.8521 61.4462 59.9698 60.5649 58.8814 60.5649C57.793 60.5649 56.9106 61.4462 56.9106 62.5333C56.9106 63.6204 57.793 64.5017 58.8814 64.5017Z" fill="#CF6679"/>
<path d="M114.029 16.4811H81.021V53.6529H114.029V16.4811Z" fill="url(#paint1_linear)"/>
<path d="M97.5286 32.9622C106.642 32.9622 114.029 25.5834 114.029 16.4811C114.029 7.37884 106.642 0 97.5286 0C88.4155 0 81.0278 7.37884 81.0278 16.4811C81.0278 25.5834 88.4155 32.9622 97.5286 32.9622Z" fill="#57D9A3"/>
<path d="M94.1722 22.9125L88.8454 17.2997C88.7243 17.1779 88.6562 17.0133 88.6562 16.8417C88.6562 16.67 88.7243 16.5054 88.8454 16.3837L90.2633 15.0454C90.3851 14.9244 90.55 14.8565 90.7218 14.8565C90.8936 14.8565 91.0585 14.9244 91.1803 15.0454L94.712 18.7678L103.915 10.0108C104.037 9.88981 104.202 9.8219 104.374 9.8219C104.546 9.8219 104.711 9.88981 104.832 10.0108L106.179 11.4205C106.3 11.5422 106.368 11.7069 106.368 11.8785C106.368 12.0501 106.3 12.2148 106.179 12.3365L95.0893 22.9319C94.9649 23.0504 94.7986 23.1148 94.6267 23.1112C94.4549 23.1075 94.2915 23.0361 94.1722 22.9125V22.9125Z" fill="white"/>
<defs>
<linearGradient id="paint0_linear" x1="96.9758" y1="117.641" x2="96.9758" y2="103.064" gradientUnits="userSpaceOnUse">
<stop stop-color="#C1C7D0" stop-opacity="0.1"/>
<stop offset="0.02" stop-color="#C1C7D0" stop-opacity="0.16"/>
<stop offset="0.09" stop-color="#C1C7D0" stop-opacity="0.36"/>
<stop offset="0.17" stop-color="#C1C7D0" stop-opacity="0.53"/>
<stop offset="0.25" stop-color="#C1C7D0" stop-opacity="0.68"/>
<stop offset="0.34" stop-color="#C1C7D0" stop-opacity="0.8"/>
<stop offset="0.44" stop-color="#C1C7D0" stop-opacity="0.89"/>
<stop offset="0.56" stop-color="#C1C7D0" stop-opacity="0.95"/>
<stop offset="0.71" stop-color="#C1C7D0" stop-opacity="0.99"/>
<stop offset="1" stop-color="#C1C7D0"/>
</linearGradient>
<linearGradient id="paint1_linear" x1="97.5283" y1="53.6594" x2="97.5283" y2="16.4811" gradientUnits="userSpaceOnUse">
<stop stop-color="#ABF5D1" stop-opacity="0"/>
<stop offset="0.34" stop-color="#96F4CA" stop-opacity="0.25"/>
<stop offset="0.64" stop-color="#86F3C5" stop-opacity="0.44"/>
<stop offset="0.87" stop-color="#7DF2C1" stop-opacity="0.56"/>
<stop offset="1" stop-color="#79F2C0" stop-opacity="0.6"/>
</linearGradient>
</defs>
</svg>
